<?xml version="1.0" standalone="no"?>
<!DOCTYPE svg PUBLIC "-//W3C//DTD SVG 20010904//EN"
 "http://www.w3.org/TR/2001/REC-SVG-20010904/DTD/svg10.dtd">
<svg version="1.0" xmlns="http://www.w3.org/2000/svg"
 width="512.000000pt" height="512.000000pt" viewBox="0 0 512.000000 512.000000"
 preserveAspectRatio="xMidYMid meet">
<metadata>
Created by potrace 1.11, written by Peter Selinger 2001-2013
</metadata>
<g transform="translate(0.000000,512.000000) scale(0.100000,-0.100000)"
fill="#000000" stroke="none">
<path d="M3871 4936 l-21 -22 0 -926 c0 -783 2 -932 15 -973 12 -42 13 -94 5
-345 -5 -162 -13 -533 -16 -825 -6 -476 -5 -536 9 -586 16 -55 19 -58 67 -75
27 -10 64 -30 82 -46 18 -15 49 -33 68 -39 19 -6 51 -26 70 -44 19 -18 51 -38
70 -44 19 -6 51 -24 70 -41 19 -16 56 -37 81 -45 26 -9 55 -25 65 -37 19 -21
116 -68 140 -68 7 0 22 12 33 26 21 27 21 30 21 1073 0 575 -4 1231 -10 1456
-16 658 -16 870 -2 1000 l12 120 -57 53 c-32 29 -73 59 -90 67 -18 8 -50 27
-70 43 -21 16 -54 35 -73 42 -19 7 -50 24 -68 37 -18 13 -57 35 -86 48 -30 13
-57 29 -61 35 -3 6 -30 22 -58 36 -29 15 -63 37 -77 50 -14 12 -41 30 -61 38
-35 14 -37 14 -58 -8z"/>
<path d="M2765 4666 c-20 -14 -20 -31 -28 -1123 -9 -1339 -7 -1549 18 -1617
16 -45 17 -68 6 -330 -26 -674 -26 -624 0 -652 12 -13 28 -24 34 -24 7 0 20
-9 31 -21 10 -12 44 -34 74 -49 30 -15 63 -37 73 -48 11 -11 41 -29 68 -38 26
-10 63 -30 81 -46 18 -15 54 -35 79 -43 26 -9 55 -25 65 -37 11 -11 42 -31 69
-43 28 -13 61 -35 74 -49 26 -28 50 -33 69 -14 16 16 17 983 1 1515 -11 360
-11 400 5 485 16 84 17 170 14 899 -3 887 1 826 -67 855 -20 8 -45 23 -56 34
-11 10 -40 27 -65 38 -25 11 -56 31 -69 45 -13 15 -45 33 -72 42 -26 9 -53 23
-61 32 -7 9 -45 31 -84 49 -40 18 -75 38 -79 44 -4 7 -33 23 -64 37 -31 14
-65 36 -76 49 -18 23 -22 24 -40 10z"/>
<path d="M1647 4352 c-14 -16 -16 -153 -19 -1462 -3 -1400 -2 -1446 16 -1483
18 -36 18 -51 7 -305 -16 -381 -16 -402 12 -443 13 -20 47 -47 80 -64 32 -16
61 -35 65 -42 4 -6 37 -26 75 -43 37 -18 67 -37 67 -42 0 -5 28 -21 63 -37 34
-15 69 -36 77 -46 8 -9 40 -30 71 -45 31 -15 67 -37 80 -49 13 -12 40 -27 61
-33 33 -10 41 -9 59 8 22 19 22 20 16 414 -3 217 -11 517 -18 666 -12 259 -12
274 7 330 18 57 19 94 15 1149 -3 951 -5 1095 -19 1128 -13 34 -25 43 -87 72
-40 18 -76 38 -80 45 -4 6 -36 25 -71 41 -35 15 -64 33 -64 39 0 5 -28 24 -62
40 -34 17 -71 39 -82 49 -12 11 -41 27 -66 37 -25 9 -56 27 -70 40 -22 20 -91
54 -110 54 -4 0 -14 -8 -23 -18z"/>
<path d="M520 4087 l-25 -13 -7 -1379 c-5 -910 -4 -1391 3 -1411 5 -18 19 -40
29 -49 18 -16 20 -31 20 -124 0 -58 -7 -198 -15 -311 -19 -258 -21 -378 -7
-413 8 -18 28 -34 64 -50 29 -13 60 -32 68 -41 8 -10 39 -29 69 -43 31 -13 65
-32 76 -42 11 -10 38 -28 61 -39 22 -11 47 -28 55 -38 8 -9 39 -28 69 -41 65
-29 90 -50 90 -75 0 -16 10 -18 102 -18 l101 0 -7 308 c-4 169 -11 388 -16
487 -14 278 -13 463 5 522 13 45 15 197 13 1198 l-3 1146 -50 44 c-27 24 -70
52 -95 61 -25 9 -61 30 -82 45 -20 16 -56 36 -80 45 -23 9 -54 27 -68 40 -14
13 -43 30 -65 39 -22 9 -54 30 -70 45 -17 16 -50 36 -74 45 -24 8 -59 28 -77
45 -39 33 -48 35 -84 17z"/>
</g>
</svg>
