<?xml version="1.0" encoding="utf-8"?>
<!-- Generator: Adobe Illustrator 25.0.1, SVG Export Plug-In . SVG Version: 6.00 Build 0)  -->
<svg version="1.1" id="レイヤー_1" xmlns="http://www.w3.org/2000/svg" xmlns:xlink="http://www.w3.org/1999/xlink" x="0px"
	 y="0px" viewBox="0 0 21.5 17.7" style="enable-background:new 0 0 21.5 17.7;" xml:space="preserve">
<style type="text/css">
	.st0{fill:#033170;}
</style>
<g>
	<path class="st0" d="M10.7,6.5c-1,0-1.9,0.4-2.6,1.1c-1.4,1.4-1.4,3.8,0,5.2c1.4,1.4,3.7,1.4,5.1,0c0,0,0,0,0,0
		c1.4-1.4,1.4-3.8,0-5.2C12.6,6.8,11.7,6.5,10.7,6.5z M10.7,12.4c-1.3,0-2.3-1-2.3-2.2c0-1.3,1-2.3,2.2-2.3c1.3,0,2.3,1,2.3,2.2
		c0,0,0,0,0,0C13,11.4,12,12.4,10.7,12.4z"/>
	<path class="st0" d="M20.8,3.8c-0.4-0.4-1-0.6-1.5-0.6h-2.4c-0.2,0-0.4-0.1-0.5-0.3l-0.7-1.6c-0.3-0.8-1.1-1.3-2-1.3H7.7
		c-0.9,0-1.6,0.5-2,1.3L5,2.9C4.9,3.1,4.7,3.2,4.5,3.2H2.2C1,3.2,0,4.2,0,5.4c0,0,0,0,0,0v10.2c0,0.6,0.2,1.1,0.6,1.5
		c0.4,0.4,1,0.6,1.5,0.6h17.1c0.6,0,1.1-0.2,1.5-0.6c0.4-0.4,0.6-1,0.6-1.5V5.4C21.5,4.8,21.2,4.2,20.8,3.8z M14.2,13.7
		c-1.9,1.9-5,2-7,0c0,0,0,0,0,0c-1.9-2-1.9-5.1,0-7c1.9-1.9,5-2,7,0c0,0,0,0,0,0C16.2,8.6,16.2,11.7,14.2,13.7z M19.4,7.1h-1.5V5.6
		h1.5V7.1z"/>
</g>
</svg>
