<svg xmlns="http://www.w3.org/2000/svg" width="119.934" height="18.17" viewBox="0 0 119.934 18.17"><g transform="translate(-159.848 -257.091)"><g transform="translate(159.848 257.091)"><g transform="translate(33.435 1.122)"><path d="M325.214,278.613l-3.64-7.6-1.32,1.661v5.938h-3.162V262.368h3.162v6.416l4.778-6.416h3.231l-4.573,6.211,4.96,10.033Z" transform="translate(-317.092 -262.368)"/><path d="M398.843,278.613,398,274.927h-4.55l-.887,3.686h-3.14l4.5-16.245h3.777l4.391,16.245Zm-3.094-13.4-1.684,7.076h3.322Z" transform="translate(-374.044 -262.368)"/><path d="M481.779,278.613l-4.914-10.625v10.625h-2.912V262.368h3l4.914,10.625V262.368h2.912v16.245Z" transform="translate(-440.599 -262.368)"/><path d="M557.411,278.613V262.368h4.778a5.507,5.507,0,0,1,3.617,1.092,4.041,4.041,0,0,1,.739,5.073,4.108,4.108,0,0,1-1.718,1.433,4.192,4.192,0,0,1,2.059,1.524,4.076,4.076,0,0,1,.74,2.412,4.385,4.385,0,0,1-1.411,3.458,5.658,5.658,0,0,1-3.891,1.251Zm4.573-9.669a2.04,2.04,0,0,0,1.525-.535,2.072,2.072,0,0,0,.523-1.513q0-1.933-2.161-1.934h-1.479v3.982Zm.114,7.075q2.434,0,2.434-2.321a2.292,2.292,0,0,0-.614-1.729,2.459,2.459,0,0,0-1.775-.592h-1.752v4.641Z" transform="translate(-506.312 -262.368)"/><path d="M633.808,278.613V262.368h8.918v2.867h-5.71v3.617h5.347v2.867h-5.347v4.027h6.1l-.341,2.867Z" transform="translate(-566.465 -262.368)"/><path d="M708.813,278.613V262.368h3.208v16.245Z" transform="translate(-625.522 -262.368)"/></g><g transform="translate(0 0)"><rect width="11.581" height="4.22" rx="1.163" transform="translate(0 13.95)" fill="#003170"/><rect width="6.307" height="4.22" rx="1.163" transform="translate(12.765 13.95)" fill="#003170"/><rect width="9.63" height="5.902" rx="1.163" transform="translate(24.728 5.902) rotate(180)" fill="#003170"/><rect width="13.92" height="5.902" rx="1.163" transform="translate(13.92 5.902) rotate(180)" fill="#003170"/><rect width="8.796" height="5.692" rx="1.163" transform="translate(0 7.08)" fill="#003170"/><rect width="9.098" height="5.692" rx="1.163" transform="translate(9.974 7.08)" fill="#003170"/><rect width="4.487" height="5.692" rx="1.163" transform="translate(20.25 7.08)" fill="#003170"/><rect width="4.487" height="4.22" rx="1.163" transform="translate(20.25 13.95)" fill="#00d9ff"/></g></g></g></svg>