<?xml version="1.0" encoding="utf-8"?>
<!-- Generator: Adobe Illustrator 25.1.0, SVG Export Plug-In . SVG Version: 6.00 Build 0)  -->
<svg version="1.1" id="レイヤー_1" xmlns="http://www.w3.org/2000/svg" xmlns:xlink="http://www.w3.org/1999/xlink" x="0px"
	 y="0px" viewBox="0 0 180.1 29.4" style="enable-background:new 0 0 180.1 29.4;" xml:space="preserve">
<style type="text/css">
	.st0{fill:#FFFFFF;}
	.st1{fill:#00D9FF;}
</style>
<path class="st0" d="M18.3,22.5h-18C0.2,22.5,0,22.8,0,23v6c0,0.2,0.2,0.4,0.4,0.5h18c0.2,0,0.4-0.2,0.5-0.5v-6
	C18.8,22.8,18.6,22.5,18.3,22.5z"/>
<path class="st0" d="M30.5,22.5H21c-0.2,0-0.4,0.2-0.5,0.5v6c0,0.2,0.2,0.4,0.5,0.5h9.5c0.2,0,0.4-0.2,0.5-0.5v-6
	C30.9,22.7,30.7,22.6,30.5,22.5z"/>
<path class="st0" d="M24.8,9.6h14.7c0.2,0,0.4-0.2,0.5-0.4V0.4c0-0.2-0.2-0.4-0.5-0.4H24.8c-0.2,0-0.4,0.2-0.5,0.4v8.7
	C24.5,9.3,24.6,9.6,24.8,9.6z"/>
<path class="st0" d="M0.4,9.6h21.8c0.2,0,0.4-0.2,0.5-0.4V0.4C22.5,0.1,22.4,0,22.1,0H0.4C0.2,0,0,0.1,0,0.3c0,0,0,0.1,0,0.1v8.7
	C0,9.4,0.2,9.6,0.4,9.6z"/>
<path class="st0" d="M13.8,11.4H0.3c-0.2,0-0.3,0.3-0.3,0.4v8.4c0,0.2,0.2,0.4,0.4,0.5H14c0.2,0,0.4-0.2,0.4-0.5v-8.4
	C14.3,11.7,14.1,11.4,13.8,11.4z"/>
<path class="st0" d="M30.5,11.4h-14c-0.2,0-0.4,0.2-0.4,0.4v8.4c0,0.2,0.2,0.4,0.4,0.5h14c0.2,0,0.4-0.2,0.5-0.5v-8.4
	C30.9,11.6,30.7,11.5,30.5,11.4z"/>
<path class="st0" d="M39.6,11.4h-6.5c-0.2,0-0.4,0.2-0.5,0.4v8.4c0,0.2,0.2,0.4,0.5,0.5h6.5c0.2,0,0.4-0.2,0.5-0.5v-8.4
	C40.1,11.6,39.9,11.4,39.6,11.4z"/>
<path class="st1" d="M39.6,22.5h-6.5c-0.2,0-0.4,0.2-0.5,0.5v6c0,0.2,0.2,0.4,0.5,0.5h6.5c0.2,0,0.4-0.2,0.5-0.5v-6
	C40.1,22.7,39.9,22.5,39.6,22.5z"/>
<g transform="translate(53.436 1.351)">
	<path class="st0" d="M13.8,26.6h5.7l-8-16.1l7.5-10.2h-5.9L5.3,11V0.3H0v26.3h5.3v-7.7L8.1,15L13.8,26.6z"/>
	<rect x="121.3" y="0" class="st0" width="5.4" height="26.7"/>
	<path class="st0" d="M113.3,5.1V0.3H98.5v26.3h14.9v-4.8h-9.9v-5.9h8.7v-4.8h-8.7v-6L113.3,5.1z"/>
	<path class="st0" d="M92.3,18.8c0.1-2.4-1.1-4.6-3.2-5.9c1.4-1.3,2.2-3.1,2.1-5c0-4.3-3.4-7.8-7.7-7.8c0,0-0.1,0-0.1,0h-8.7v26.3
		h9.8c4.2,0.1,7.7-3.1,7.8-7.3C92.3,19,92.3,18.9,92.3,18.8z M83.5,5.1L83.5,5.1c1.7,0,3,1.3,3,3c0.1,1.7-1.2,3.2-2.9,3.3
		c0,0-0.1,0-0.1,0h-3.8V5.1H83.5z M84.5,21.8h-4.8v-6.3h4.8c1.7,0,3.1,1.5,3,3.2c0,0,0,0.1,0,0.1C87.5,20.4,86.2,21.8,84.5,21.8
		L84.5,21.8z"/>
	<path class="st0" d="M37.8,26.6h5L35.3,0.3H30l-7.7,26.3h5l1.5-5.1h7.5L37.8,26.6z M30.3,16.7l2.4-8.1l2.4,8.1H30.3z"/>
	<path class="st0" d="M61.4,0.3v13.5L49.1,0h-0.6v7.5l0,0v19.1h5.4V13.4l12.5,13.5h0.4V0.3H61.4z"/>
</g>
</svg>
